<svg width="26" height="22" viewBox="0 0 26 22" fill="none" xmlns="http://www.w3.org/2000/svg">
<path d="M18.1176 1.29413C15.1321 1.29413 12.6824 3.56243 12.6824 6.32681V8.3938C11.9452 9.061 11.3595 9.85781 10.9595 10.7375C10.5595 11.6171 10.3533 12.5619 10.3529 13.5163C10.3529 17.4778 13.8393 20.7059 18.1176 20.7059C22.396 20.7059 25.8824 17.4778 25.8824 13.5163C25.882 12.5619 25.6758 11.6171 25.2758 10.7375C24.8758 9.85781 24.2901 9.061 23.5529 8.3938V6.32681C23.5529 3.56243 21.1032 1.29413 18.1176 1.29413ZM18.1176 2.73204C20.2568 2.73204 22 4.34609 22 6.32681V7.31537C20.8547 6.69707 19.5355 6.32681 18.1176 6.32681C16.6998 6.32681 15.3806 6.69779 14.2353 7.31537V6.32681C14.2353 4.34609 15.9785 2.73204 18.1176 2.73204ZM18.1176 7.76472C21.5574 7.76472 24.3294 10.3314 24.3294 13.5163C24.3294 16.7013 21.5574 19.268 18.1176 19.268C14.6779 19.268 11.9059 16.7013 11.9059 13.5163C11.9059 10.3314 14.6779 7.76472 18.1176 7.76472ZM18.1176 12.0784C17.7058 12.0784 17.3108 12.2299 17.0196 12.4996C16.7283 12.7693 16.5647 13.135 16.5647 13.5163C16.5647 14.0484 16.8776 14.5035 17.3412 14.753V17.1111H18.8941V14.753C19.3577 14.5035 19.6706 14.0484 19.6706 13.5163C19.6706 13.135 19.507 12.7693 19.2157 12.4996C18.9245 12.2299 18.5295 12.0784 18.1176 12.0784Z" fill="#363A41"/>
<path d="M3.10049 2.75C2.99323 2.75 2.89037 2.82243 2.81453 2.95136C2.73869 3.0803 2.69608 3.25516 2.69608 3.4375C2.69608 3.61984 2.73869 3.7947 2.81453 3.92364C2.89037 4.05257 2.99323 4.125 3.10049 4.125H9.84069C9.94794 4.125 10.0508 4.05257 10.1267 3.92364C10.2025 3.7947 10.2451 3.61984 10.2451 3.4375C10.2451 3.25516 10.2025 3.0803 10.1267 2.95136C10.0508 2.82243 9.94794 2.75 9.84069 2.75H3.10049Z" fill="#363A41"/>
<path d="M4.97264 13.0341C5.04112 12.9176 5.1319 12.8468 5.22847 12.8346C5.32505 12.8223 5.42102 12.8693 5.49892 12.9672L5.54421 13.0341L6.20205 14.1533V11.3392L6.20098 11.3153V7.84666L5.54313 8.96591L5.49784 9.03282C5.41992 9.13139 5.32375 9.17899 5.22689 9.16694C5.13003 9.15488 5.03896 9.08398 4.97031 8.96718C4.90167 8.85038 4.86005 8.69548 4.85305 8.53081C4.84605 8.36614 4.87415 8.20268 4.9322 8.07032L4.97156 7.99332L6.24789 5.82082C6.28651 5.71986 6.33968 5.63738 6.40235 5.58122C6.46502 5.52506 6.5351 5.4971 6.60593 5.49999C6.74181 5.49999 6.86205 5.59991 6.93539 5.75299L6.96397 5.82174L8.24029 7.99424L8.27965 8.07124C8.33044 8.18805 8.35816 8.3292 8.35884 8.47445C8.35952 8.6197 8.33312 8.76158 8.28343 8.87974L8.24029 8.96591L8.195 9.03282C8.12624 9.11938 8.0431 9.16663 7.95755 9.16778C7.87199 9.16893 7.78843 9.12393 7.71887 9.03924L7.66818 8.96591L7.0098 7.84666V10.6608L7.01088 10.6847V14.1533L7.66926 13.0341C7.73777 12.9174 7.82865 12.8465 7.92535 12.8342C8.02205 12.8219 8.11813 12.8691 8.19607 12.9672L8.24137 13.0341C8.30978 13.1506 8.35132 13.305 8.35845 13.4692C8.36557 13.6333 8.3378 13.7964 8.28019 13.9287L8.24137 14.0067L6.96504 16.1792C6.92642 16.2801 6.87325 16.3626 6.81058 16.4188C6.74791 16.4749 6.67783 16.5029 6.60701 16.5C6.53618 16.5029 6.4661 16.4749 6.40343 16.4188C6.34076 16.3626 6.28759 16.2801 6.24897 16.1792L4.97264 14.0067C4.93506 13.9428 4.90525 13.867 4.88491 13.7836C4.86457 13.7001 4.8541 13.6107 4.8541 13.5204C4.8541 13.43 4.86457 13.3406 4.88491 13.2572C4.90525 13.1737 4.93506 13.0979 4.97264 13.0341Z" fill="#363A41"/>
<path d="M2.69608 18.5625C2.69608 18.3802 2.73869 18.2053 2.81453 18.0764C2.89037 17.9474 2.99323 17.875 3.10049 17.875H9.84069C9.94794 17.875 10.0508 17.9474 10.1267 18.0764C10.2025 18.2053 10.2451 18.3802 10.2451 18.5625C10.2451 18.7448 10.2025 18.9197 10.1267 19.0486C10.0508 19.1776 9.94794 19.25 9.84069 19.25H3.10049C2.99323 19.25 2.89037 19.1776 2.81453 19.0486C2.73869 18.9197 2.69608 18.7448 2.69608 18.5625Z" fill="#363A41"/>
</svg>
