<svg width="20" height="17" viewBox="0 0 20 17" fill="none" xmlns="http://www.w3.org/2000/svg">
<path d="M14 1C11.693 1 9.8 2.75278 9.8 4.88889V6.48611C9.23041 7.00167 8.77778 7.61739 8.46868 8.29712C8.15958 8.97686 8.00024 9.70691 8 10.4444C8 13.5056 10.694 16 14 16C17.306 16 20 13.5056 20 10.4444C19.9998 9.70691 19.8404 8.97686 19.5313 8.29712C19.2222 7.61739 18.7696 7.00167 18.2 6.48611V4.88889C18.2 2.75278 16.307 1 14 1ZM14 2.11111C15.653 2.11111 17 3.35833 17 4.88889V5.65278C16.115 5.175 15.0956 4.88889 14 4.88889C12.9044 4.88889 11.885 5.17556 11 5.65278V4.88889C11 3.35833 12.347 2.11111 14 2.11111ZM14 6C16.658 6 18.8 7.98333 18.8 10.4444C18.8 12.9056 16.658 14.8889 14 14.8889C11.342 14.8889 9.2 12.9056 9.2 10.4444C9.2 7.98333 11.342 6 14 6ZM14 9.33333C13.6817 9.33333 13.3765 9.4504 13.1515 9.65877C12.9264 9.86714 12.8 10.1498 12.8 10.4444C12.8 10.8556 13.0418 11.2072 13.4 11.4V13.2222H14.6V11.4C14.9582 11.2072 15.2 10.8556 15.2 10.4444C15.2 10.1498 15.0736 9.86714 14.8485 9.65877C14.6235 9.4504 14.3183 9.33333 14 9.33333Z" fill="#737B7D"/>
<path d="M2.39587 2.125C2.31299 2.125 2.23351 2.18097 2.1749 2.2806C2.1163 2.38023 2.08337 2.51535 2.08337 2.65625C2.08337 2.79715 2.1163 2.93227 2.1749 3.0319C2.23351 3.13153 2.31299 3.1875 2.39587 3.1875H7.60421C7.68709 3.1875 7.76657 3.13153 7.82518 3.0319C7.88378 2.93227 7.91671 2.79715 7.91671 2.65625C7.91671 2.51535 7.88378 2.38023 7.82518 2.2806C7.76657 2.18097 7.68709 2.125 7.60421 2.125H2.39587Z" fill="#737B7D"/>
<path d="M3.84249 10.0718C3.8954 9.98182 3.96555 9.92712 4.04018 9.91763C4.11481 9.90814 4.18896 9.9445 4.24916 10.0201L4.28416 10.0718L4.79249 10.9367V8.76208L4.79166 8.74367V6.06333L4.28332 6.92821L4.24832 6.97992C4.18812 7.05608 4.1138 7.09287 4.03895 7.08355C3.96411 7.07424 3.89373 7.01944 3.84069 6.92919C3.78765 6.83894 3.75549 6.71925 3.75008 6.592C3.74467 6.46475 3.76638 6.33845 3.81124 6.23617L3.84166 6.17667L4.82791 4.49792C4.85775 4.4199 4.89884 4.35616 4.94727 4.31277C4.99569 4.26937 5.04985 4.24777 5.10457 4.25C5.20957 4.25 5.30249 4.32721 5.35916 4.4455L5.38124 4.49863L6.36749 6.17738L6.39791 6.23688C6.43715 6.32714 6.45857 6.43621 6.4591 6.54844C6.45962 6.66068 6.43922 6.77032 6.40082 6.86163L6.36749 6.92821L6.33249 6.97992C6.27936 7.0468 6.21512 7.08331 6.14901 7.0842C6.0829 7.08509 6.01832 7.05032 5.96457 6.98488L5.92541 6.92821L5.41666 6.06333V8.23792L5.41749 8.25633V10.9367L5.92624 10.0718C5.97918 9.98164 6.04941 9.92682 6.12413 9.91732C6.19885 9.90783 6.27309 9.9443 6.33332 10.0201L6.36832 10.0718C6.42119 10.1618 6.45329 10.2811 6.45879 10.408C6.4643 10.5349 6.44284 10.6609 6.39832 10.7631L6.36832 10.8233L5.38207 12.5021C5.35223 12.5801 5.31114 12.6438 5.26271 12.6872C5.21429 12.7306 5.16013 12.7522 5.10541 12.75C5.05068 12.7522 4.99653 12.7306 4.9481 12.6872C4.89967 12.6438 4.85858 12.5801 4.82874 12.5021L3.84249 10.8233C3.81345 10.774 3.79041 10.7154 3.7747 10.6509C3.75898 10.5865 3.75089 10.5174 3.75089 10.4476C3.75089 10.3778 3.75898 10.3087 3.7747 10.2442C3.79041 10.1797 3.81345 10.1211 3.84249 10.0718Z" fill="#737B7D"/>
<path d="M2.08337 14.3438C2.08337 14.2029 2.1163 14.0677 2.1749 13.9681C2.23351 13.8685 2.31299 13.8125 2.39587 13.8125H7.60421C7.68709 13.8125 7.76657 13.8685 7.82518 13.9681C7.88378 14.0677 7.91671 14.2029 7.91671 14.3438C7.91671 14.4846 7.88378 14.6198 7.82518 14.7194C7.76657 14.819 7.68709 14.875 7.60421 14.875H2.39587C2.31299 14.875 2.23351 14.819 2.1749 14.7194C2.1163 14.6198 2.08337 14.4846 2.08337 14.3438Z" fill="#737B7D"/>
</svg>
