<svg width="20" height="20" viewBox="0 0 20 20" fill="none" xmlns="http://www.w3.org/2000/svg">
<path d="M4.58581 3.85585L4.58331 5.62502V14.3784C4.58331 15.0966 4.86865 15.7855 5.37657 16.2934C5.88448 16.8013 6.57335 17.0867 7.29165 17.0867H14.4716C14.3423 17.4523 14.1027 17.7688 13.7861 17.9926C13.4694 18.2165 13.0911 18.3367 12.7033 18.3367H7.29165C6.24183 18.3367 5.23501 17.9196 4.49268 17.1773C3.75035 16.435 3.33331 15.4282 3.33331 14.3784V5.62502C3.33331 4.80835 3.85581 4.11252 4.58581 3.85585ZM14.7916 1.66669C15.0379 1.66669 15.2817 1.71519 15.5092 1.80941C15.7367 1.90364 15.9434 2.04175 16.1175 2.21586C16.2916 2.38997 16.4297 2.59667 16.5239 2.82416C16.6181 3.05164 16.6666 3.29546 16.6666 3.54169V14.375C16.6666 14.6212 16.6181 14.8651 16.5239 15.0926C16.4297 15.32 16.2916 15.5267 16.1175 15.7008C15.9434 15.875 15.7367 16.0131 15.5092 16.1073C15.2817 16.2015 15.0379 16.25 14.7916 16.25H7.29165C6.79437 16.25 6.31745 16.0525 5.96582 15.7008C5.61419 15.3492 5.41665 14.8723 5.41665 14.375V3.54169C5.41665 3.04441 5.61419 2.56749 5.96582 2.21586C6.31745 1.86423 6.79437 1.66669 7.29165 1.66669H14.7916Z" fill="#737B7D"/>
</svg>
