<svg width="18" height="18" viewBox="0 0 18 18" fill="none" xmlns="http://www.w3.org/2000/svg">
<path d="M8.99998 14.25C9.70948 14.25 10.3575 14.1727 10.9485 14.0392L9.63073 12.7215C9.42598 12.7372 9.21823 12.75 8.99998 12.75C4.98673 12.75 3.43198 9.86548 3.05548 8.99998C3.33819 8.36908 3.72002 7.78748 4.18648 7.27723L3.13798 6.22873C1.98448 7.47898 1.54723 8.73823 1.53898 8.76298C1.48725 8.917 1.48725 9.0837 1.53898 9.23773C1.55473 9.28723 3.27523 14.25 8.99998 14.25ZM8.99998 3.74998C7.62223 3.74998 6.49048 4.04698 5.54698 4.48573L2.78023 1.71973L1.71973 2.78023L15.2197 16.2802L16.2802 15.2197L13.791 12.7305C15.7515 11.2672 16.4512 9.26923 16.4617 9.23773C16.5135 9.0837 16.5135 8.917 16.4617 8.76298C16.4452 8.71273 14.7247 3.74998 8.99998 3.74998ZM12.729 11.6685L11.019 9.95848C11.1615 9.66598 11.25 9.34423 11.25 8.99998C11.25 7.76923 10.2307 6.74998 8.99998 6.74998C8.65573 6.74998 8.33398 6.83848 8.04223 6.98173L6.68623 5.62573C7.43062 5.37029 8.21301 5.24323 8.99998 5.24998C13.0132 5.24998 14.568 8.13448 14.9445 8.99998C14.718 9.51898 14.07 10.7565 12.729 11.6685Z" fill="#737B7D"/>
</svg>
