<svg width="20" height="20" viewBox="0 0 20 20" fill="none" xmlns="http://www.w3.org/2000/svg">
<path d="M10.32 2.013C9.67308 1.96093 9.02322 2.06706 8.42648 2.32222C7.82974 2.57737 7.30405 2.9739 6.89477 3.47758C6.48549 3.98126 6.20491 4.57696 6.07724 5.21328C5.94958 5.8496 5.97867 6.50743 6.16199 7.13L2.17499 11.116C2.06244 11.2284 1.99913 11.3809 1.99899 11.54V14.4C1.99899 14.5591 2.06221 14.7117 2.17473 14.8243C2.28725 14.9368 2.43986 15 2.59899 15H5.39899C5.55812 15 5.71074 14.9368 5.82326 14.8243C5.93578 14.7117 5.99899 14.5591 5.99899 14.4V13H7.89899C8.05812 13 8.21074 12.9368 8.32326 12.8243C8.43578 12.7117 8.49899 12.5591 8.49899 12.4V10.707L9.23399 9.972C9.01859 9.70819 8.82811 9.42498 8.66499 9.126L7.67499 10.117C7.56244 10.2294 7.49913 10.3819 7.49899 10.541V12H5.59999C5.44086 12 5.28825 12.0632 5.17573 12.1757C5.06321 12.2883 4.99999 12.4409 4.99999 12.6V14H2.99999V11.707L7.31999 7.387L7.20199 7.084C7.05184 6.69618 6.98393 6.28138 7.00257 5.86592C7.02122 5.45046 7.12601 5.04341 7.3103 4.6706C7.49459 4.29779 7.75436 3.96735 8.07312 3.70024C8.39188 3.43314 8.76268 3.23521 9.16199 3.119C9.49199 2.696 9.88199 2.323 10.319 2.013H10.32ZM13.5 6.25C13.5985 6.25 13.696 6.2306 13.787 6.19291C13.878 6.15522 13.9607 6.09997 14.0303 6.03033C14.1 5.96069 14.1552 5.87801 14.1929 5.78701C14.2306 5.69602 14.25 5.59849 14.25 5.5C14.25 5.40151 14.2306 5.30398 14.1929 5.21299C14.1552 5.12199 14.1 5.03931 14.0303 4.96967C13.9607 4.90003 13.878 4.84478 13.787 4.80709C13.696 4.7694 13.5985 4.75 13.5 4.75C13.3011 4.75 13.1103 4.82902 12.9697 4.96967C12.829 5.11032 12.75 5.30109 12.75 5.5C12.75 5.69891 12.829 5.88968 12.9697 6.03033C13.1103 6.17098 13.3011 6.25 13.5 6.25ZM8.99999 6.5C9.00005 5.72258 9.20152 4.95843 9.58475 4.28203C9.96799 3.60563 10.5199 3.04006 11.1868 2.64042C11.8536 2.24079 12.6126 2.02073 13.3898 2.00169C14.167 1.98266 14.9359 2.16529 15.6215 2.5318C16.3071 2.8983 16.886 3.43618 17.3019 4.093C17.7178 4.74983 17.9565 5.5032 17.9946 6.27968C18.0327 7.05617 17.869 7.82929 17.5195 8.52369C17.1699 9.2181 16.6464 9.8101 16 10.242V12.292L16.783 13.076C16.8954 13.1885 16.9585 13.341 16.9585 13.5C16.9585 13.659 16.8954 13.8115 16.783 13.924L15.707 15L16.775 16.067C16.8347 16.1267 16.8811 16.1983 16.9112 16.2772C16.9413 16.3561 16.9544 16.4404 16.9497 16.5247C16.9449 16.609 16.9225 16.6913 16.8838 16.7663C16.8451 16.8413 16.791 16.9073 16.725 16.96L14.375 18.84C14.2686 18.9252 14.1363 18.9716 14 18.9716C13.8637 18.9716 13.7314 18.9252 13.625 18.84L11.225 16.92C11.1548 16.8638 11.0982 16.7926 11.0592 16.7116C11.0203 16.6306 11 16.5419 11 16.452V10.242C10.3844 9.83109 9.8797 9.27454 9.53081 8.62176C9.18192 7.96899 8.99958 7.24017 8.99999 6.5ZM13.5 3C12.7292 2.99965 11.9799 3.25374 11.3683 3.72282C10.7567 4.1919 10.3171 4.84975 10.1176 5.59425C9.91818 6.33876 9.97005 7.12828 10.2652 7.84029C10.5604 8.5523 11.0823 9.14697 11.75 9.532C11.826 9.57588 11.8891 9.639 11.933 9.71501C11.9769 9.79101 12 9.87723 12 9.965V16.26L14 17.86L15.751 16.459L14.717 15.424C14.6046 15.3115 14.5415 15.159 14.5415 15C14.5415 14.841 14.6046 14.6885 14.717 14.576L15.793 13.5L15.176 12.883C15.0634 12.7706 15.0001 12.6181 15 12.459V9.965C15 9.87723 15.0231 9.79101 15.067 9.71501C15.1109 9.639 15.174 9.57588 15.25 9.532C15.9177 9.14697 16.4396 8.5523 16.7348 7.84029C17.0299 7.12828 17.0818 6.33876 16.8823 5.59425C16.6829 4.84975 16.2432 4.1919 15.6317 3.72282C15.0201 3.25374 14.2708 2.99965 13.5 3Z" fill="#737B7D"/>
</svg>
