<svg width="49" height="62" viewBox="0 0 49 62" fill="none" xmlns="http://www.w3.org/2000/svg">
<path d="M24.8312 41.9864C24.7744 42.0432 24.7176 42.0999 24.6609 42.1567C24.6183 42.1993 24.5616 42.256 24.519 42.2986C24.5757 42.2418 24.6183 42.1851 24.6751 42.1283C24.7176 42.0857 24.7744 42.0432 24.8312 41.9864Z" fill="#0000FF"/>
<path d="M37.7717 35.9134C37.8568 35.9985 37.942 36.0837 38.0271 36.183C38.098 36.2539 38.1548 36.3107 38.2116 36.3816C38.5379 36.7506 38.8501 37.1195 39.1339 37.5168C39.1906 37.6019 39.2474 37.6729 39.3041 37.758C39.3751 37.8573 39.446 37.9566 39.517 38.0702C39.5737 38.1411 39.6163 38.2262 39.673 38.2972C39.6872 38.3114 39.7014 38.3256 39.7014 38.3539C39.7582 38.4391 39.8149 38.5384 39.8717 38.6235C39.9001 38.6803 39.9284 38.737 39.9568 38.7796C40.0136 38.8789 40.0703 38.9783 40.1271 39.0776C40.1413 39.106 40.1555 39.1202 40.1555 39.1485C40.1697 39.1769 40.1839 39.2195 40.2122 39.2479C40.2548 39.333 40.2974 39.4181 40.3399 39.5033C40.3683 39.5458 40.3825 39.6026 40.4109 39.6593C40.4534 39.7303 40.4818 39.8154 40.5244 39.9006C40.5953 40.0708 40.6805 40.2269 40.7372 40.3972C40.7656 40.4823 40.8082 40.5675 40.8366 40.6526C40.8649 40.7377 40.9075 40.8229 40.9359 40.908C40.9643 40.9931 40.9926 41.0783 41.021 41.1634C41.1345 41.5039 41.248 41.8445 41.3332 42.1992C41.3616 42.2843 41.3757 42.3695 41.3899 42.4546C41.4325 42.6249 41.4751 42.8093 41.5034 42.9796C41.5318 43.0931 41.546 43.1925 41.5602 43.306C41.5744 43.4195 41.6028 43.5188 41.617 43.6323C41.6453 43.831 41.6737 44.0296 41.6879 44.2425C41.6879 44.285 41.7021 44.3276 41.7021 44.356C41.7163 44.4411 41.7163 44.5262 41.7305 44.6114C41.7447 44.7249 41.7447 44.8242 41.7447 44.9377C41.7447 45.0512 41.7589 45.1506 41.7589 45.2641C41.7589 45.4911 41.773 45.7181 41.7589 45.9452C41.7589 46.0445 41.7589 46.1438 41.7447 46.2431C41.7447 46.4134 41.7305 46.5979 41.7163 46.7681C41.7163 46.8391 41.7021 46.8958 41.7021 46.9668C41.6312 47.6762 41.5034 48.3857 41.319 49.081C41.3048 49.1519 41.2764 49.2229 41.2622 49.2938C41.248 49.3506 41.2339 49.4215 41.2055 49.4783C41.1771 49.5634 41.1487 49.6485 41.1203 49.7337C40.9784 50.2019 40.794 50.6702 40.5953 51.1384C40.567 51.2235 40.5244 51.3087 40.4818 51.3938C40.4393 51.4789 40.3967 51.5783 40.3541 51.6634C40.3116 51.7627 40.2548 51.8479 40.2122 51.9472C40.1839 52.0181 40.1413 52.0891 40.0987 52.1458C40.0561 52.2168 40.0278 52.2877 39.9852 52.3445C39.7156 52.8127 39.4318 53.2668 39.1055 53.7066C39.0487 53.7776 38.992 53.8627 38.9352 53.9337C38.921 53.9479 38.9068 53.9762 38.8926 53.9904C38.8217 54.0756 38.7649 54.1465 38.694 54.2316C38.623 54.3168 38.5521 54.4161 38.467 54.5012C38.4102 54.5722 38.3393 54.6431 38.2825 54.7141C38.2399 54.7566 38.1974 54.8134 38.1548 54.856C38.098 54.9127 38.0555 54.9695 37.9987 55.0262C37.9136 55.1114 37.8426 55.1965 37.7575 55.2675C37.6724 55.3526 37.6014 55.4235 37.5163 55.5087C37.4595 55.5654 37.4028 55.6222 37.346 55.6647C37.3034 55.7073 37.2467 55.7499 37.2041 55.7925C37.1332 55.8634 37.0622 55.9202 36.9913 55.9769C36.9062 56.0479 36.821 56.133 36.7217 56.2039C36.6366 56.2749 36.5656 56.3316 36.4805 56.4026C36.4663 56.4168 36.4379 56.431 36.4237 56.4452C36.3528 56.5019 36.2676 56.5587 36.1967 56.6154C35.7568 56.9418 35.3028 57.2256 34.8345 57.4952C34.7636 57.5377 34.6926 57.5661 34.6359 57.6087C34.5649 57.6512 34.494 57.6796 34.4372 57.7222C34.3379 57.7789 34.2528 57.8215 34.1535 57.8641C34.0683 57.9066 33.969 57.9492 33.8839 57.9918C33.7987 58.0343 33.7136 58.0627 33.6285 58.1053C33.1744 58.3039 32.7062 58.4884 32.2237 58.6303C32.1386 58.6587 32.0534 58.687 31.9683 58.7154C31.9116 58.7296 31.8406 58.758 31.7839 58.7722C31.7129 58.7864 31.642 58.8148 31.571 58.8289C30.8757 59.0134 30.1663 59.1411 29.4568 59.212C29.3859 59.2262 29.3149 59.2262 29.2582 59.2262C29.0879 59.2404 28.9035 59.2546 28.7332 59.2546C28.6339 59.2546 28.5345 59.2688 28.4352 59.2688C28.2082 59.2688 27.9811 59.2688 27.7541 59.2688C27.6406 59.2688 27.5413 59.2688 27.4278 59.2546C27.3143 59.2546 27.2149 59.2404 27.1014 59.2404C27.0163 59.2404 26.9312 59.2262 26.846 59.212C26.8034 59.212 26.7609 59.212 26.7325 59.1979C26.5339 59.1695 26.3352 59.1553 26.1224 59.1269C26.0089 59.1127 25.9095 59.0985 25.796 59.0702C25.6825 59.056 25.5832 59.0276 25.4697 59.0134C25.2852 58.985 25.1149 58.9425 24.9447 58.8999C24.8595 58.8857 24.7744 58.8573 24.6893 58.8431C24.3487 58.758 23.994 58.6587 23.6534 58.531C23.5683 58.5026 23.4832 58.4742 23.398 58.4458C23.3129 58.4174 23.2278 58.3891 23.1426 58.3465C23.0575 58.3181 22.9724 58.2756 22.8872 58.2472C22.717 58.1762 22.5467 58.1053 22.3906 58.0343C22.3197 58.006 22.2345 57.9634 22.1494 57.9208C22.1068 57.8925 22.0501 57.8783 21.9933 57.8499C21.9082 57.8073 21.823 57.7647 21.7379 57.7222C21.7095 57.708 21.667 57.6938 21.6386 57.6654L29.0028 50.3012C29.0312 50.3012 29.0737 50.287 29.1021 50.2729C29.1589 50.2587 29.2156 50.2445 29.2724 50.2303C29.3433 50.2161 29.4001 50.2019 29.471 50.1735C29.5845 50.1452 29.6839 50.1026 29.7974 50.06C29.8399 50.0458 29.8967 50.0316 29.9393 50.0033C29.9535 50.0033 29.9676 49.9891 29.9818 49.9891C30.0244 49.9749 30.067 49.9607 30.1095 49.9323C30.1521 49.9181 30.1805 49.9039 30.223 49.8898C30.3933 49.8046 30.5636 49.7195 30.7339 49.606C30.7622 49.5776 30.8048 49.5634 30.8332 49.535L30.8474 49.5208C30.9609 49.4357 31.0886 49.3506 31.1879 49.2654C31.2447 49.2229 31.3014 49.1661 31.3582 49.1235C31.4291 49.0668 31.4859 49.01 31.5426 48.9533C31.5994 48.8965 31.6562 48.8256 31.7129 48.7688C31.7697 48.712 31.8122 48.6553 31.8548 48.5985C31.9399 48.485 32.0393 48.3715 32.1102 48.258L32.1244 48.2438C32.1528 48.2154 32.167 48.1729 32.1953 48.1445C32.323 47.96 32.4224 47.7472 32.5217 47.5485C32.5501 47.506 32.5643 47.4492 32.5784 47.4066C32.5784 47.3925 32.5926 47.3783 32.5926 47.3641C32.6068 47.3215 32.6352 47.2647 32.6494 47.2222C32.6778 47.1229 32.7203 47.0377 32.7487 46.9384C32.7771 46.8675 32.7913 46.7965 32.8055 46.7114V46.6972C32.8197 46.6404 32.8339 46.5979 32.848 46.5411C32.8622 46.5127 32.8622 46.4702 32.8764 46.4418C32.8906 46.3708 32.9048 46.3141 32.9048 46.2573C32.9332 46.1012 32.9474 45.9452 32.9474 45.7891C32.9474 45.7039 32.9616 45.633 32.9474 45.5479C32.9474 44.2708 32.4366 43.0364 31.5284 42.1283C30.6203 41.2202 29.3859 40.7093 28.1089 40.7093C26.8886 40.7093 25.7251 41.1634 24.8312 41.9864C24.7744 42.0289 24.7318 42.0857 24.6751 42.1283C24.6183 42.185 24.5616 42.2418 24.519 42.2985C21.7237 45.0229 18.0487 46.2999 14.4163 46.1438C11.096 46.0161 7.8325 44.6823 5.30682 42.1425C5.22169 42.0573 5.13655 41.9722 5.05142 41.8729C4.98047 41.8019 4.92372 41.7452 4.86696 41.6742C4.54061 41.3053 4.22845 40.9364 3.94466 40.5391C3.8879 40.4539 3.83115 40.383 3.77439 40.2979C3.70345 40.1985 3.6325 40.0992 3.56155 39.9857C3.5048 39.9147 3.46223 39.8296 3.40547 39.7587C3.39128 39.7445 3.37709 39.7303 3.37709 39.7019C3.32034 39.6168 3.26358 39.5175 3.20682 39.4323C3.17845 39.3756 3.15007 39.3188 3.12169 39.2762C3.06493 39.1769 3.00817 39.0776 2.95142 38.9783C2.93723 38.9499 2.92304 38.9357 2.92304 38.9073C2.90885 38.8789 2.89466 38.8364 2.86628 38.808C2.82372 38.7229 2.78115 38.6377 2.73858 38.5526C2.7102 38.51 2.69601 38.4533 2.66763 38.3965C2.62507 38.3256 2.59669 38.2404 2.55412 38.1553C2.48317 37.985 2.39804 37.8289 2.34128 37.6587C2.3129 37.5735 2.27034 37.4884 2.24196 37.4033C2.21358 37.3181 2.17101 37.233 2.14263 37.1479C2.11426 37.0627 2.08588 36.9776 2.0575 36.8925C1.94398 36.5519 1.83047 36.2114 1.74534 35.8566C1.71696 35.7715 1.70277 35.6864 1.68858 35.6012C1.64601 35.431 1.60345 35.2465 1.57507 35.0762C1.54669 34.9627 1.5325 34.8634 1.51831 34.7499C1.50412 34.6364 1.47574 34.537 1.46155 34.4235C1.43317 34.2249 1.4048 34.0262 1.39061 33.8134C1.39061 33.7708 1.37642 33.7283 1.37642 33.6999C1.36223 33.6148 1.36223 33.5296 1.34804 33.4445C1.33385 33.331 1.33385 33.2316 1.33385 33.1181C1.33385 33.0046 1.31966 32.9053 1.31966 32.7918C1.31966 32.5648 1.30547 32.3377 1.31966 32.1107C1.31966 32.0114 1.31966 31.9121 1.33385 31.8127C1.33385 31.6425 1.34804 31.458 1.36223 31.2877C1.36223 31.2168 1.37642 31.16 1.37642 31.0891C1.44736 30.3796 1.57507 29.6702 1.75953 28.9749C1.77371 28.9039 1.80209 28.833 1.81628 28.762C1.83047 28.7053 1.84466 28.6343 1.87304 28.5776C1.90142 28.4925 1.9298 28.4073 1.95817 28.3222C2.10007 27.8539 2.28453 27.3857 2.48317 26.9175C2.51155 26.8323 2.55412 26.7472 2.59669 26.662C2.63926 26.5769 2.68182 26.4776 2.72439 26.3925C2.76696 26.2931 2.82372 26.208 2.86628 26.1087C2.89466 26.0377 2.93723 25.9668 2.9798 25.91C3.02236 25.8391 3.05074 25.7681 3.09331 25.7114C3.3629 25.2431 3.64669 24.7891 3.97304 24.3492C4.0298 24.2783 4.08655 24.1931 4.14331 24.1222C4.1575 24.108 4.17169 24.0796 4.18588 24.0654C4.25682 23.9803 4.31358 23.9093 4.38453 23.8242C4.45547 23.7391 4.52642 23.6398 4.61155 23.5546C4.66831 23.4837 4.73926 23.4127 4.79601 23.3418C4.83858 23.2992 4.88115 23.2425 4.92372 23.1999C4.98047 23.1431 5.02304 23.0864 5.0798 23.0296C5.16493 22.9445 5.23588 22.8593 5.32101 22.7884C5.40615 22.7033 5.47709 22.6323 5.56223 22.5472C5.61899 22.4904 5.67574 22.4337 5.7325 22.3911C5.77507 22.3485 5.83182 22.306 5.87439 22.2634C5.94534 22.1925 6.01628 22.1357 6.08723 22.0789C6.17236 22.008 6.2575 21.9229 6.35682 21.8519C6.44196 21.781 6.5129 21.7242 6.59804 21.6533C6.61223 21.6391 6.64061 21.6249 6.6548 21.6107C6.72574 21.5539 6.81088 21.4972 6.88182 21.4404C7.32169 21.1141 7.77574 20.8303 8.24399 20.5607C8.31493 20.5181 8.38588 20.4898 8.44263 20.4472C8.51358 20.4046 8.58453 20.3762 8.64128 20.3337C8.74061 20.2769 8.82574 20.2343 8.92507 20.1918C9.0102 20.1492 9.10953 20.1066 9.19466 20.0641C9.2798 20.0215 9.36493 19.9931 9.45007 19.9506C9.90412 19.7519 10.3724 19.5675 10.8548 19.4256C10.9399 19.3972 11.0251 19.3688 11.1102 19.3404C11.167 19.3262 11.2379 19.2979 11.2947 19.2837C11.3656 19.2695 11.4366 19.2411 11.5075 19.2269C12.2028 19.0425 12.9122 18.9148 13.6217 18.8438C13.6926 18.8296 13.7636 18.8296 13.8203 18.8296C13.9906 18.8154 14.1751 18.8012 14.3453 18.8012C14.4447 18.8012 14.544 18.787 14.6433 18.787C14.8703 18.787 15.0974 18.787 15.3244 18.787C15.4379 18.787 15.5372 18.787 15.6507 18.8012C15.7643 18.8012 15.8636 18.8154 15.9771 18.8154C16.0622 18.8154 16.1474 18.8296 16.2325 18.8438C16.2751 18.8438 16.3176 18.8438 16.346 18.858C16.5447 18.8864 16.7433 18.9006 16.9561 18.9289C17.0697 18.9431 17.169 18.9573 17.2825 18.9857C17.396 18.9999 17.4953 19.0283 17.6089 19.0425C17.7933 19.0708 17.9636 19.1134 18.1339 19.156C18.219 19.1702 18.3041 19.1985 18.3893 19.2127C18.7298 19.2979 19.0845 19.3972 19.4251 19.5249C19.5102 19.5533 19.5953 19.5816 19.6805 19.61C19.7656 19.6384 19.8507 19.6668 19.9359 19.7093C20.021 19.7377 20.1061 19.7803 20.1913 19.8087C20.3616 19.8796 20.5318 19.9506 20.6879 20.0215C20.7589 20.0499 20.844 20.0925 20.9291 20.135C20.9717 20.1634 21.0284 20.1776 21.0852 20.206C21.1703 20.2485 21.2555 20.2911 21.3406 20.3337C21.369 20.3479 21.4116 20.362 21.4399 20.3904L14.0757 27.7546C14.0474 27.7546 14.0048 27.7688 13.9764 27.783C13.9197 27.7972 13.8629 27.8114 13.8061 27.8256C13.7352 27.8398 13.6784 27.8539 13.6075 27.8823C13.494 27.9107 13.3947 27.9533 13.2811 27.9958C13.2386 28.01 13.1818 28.0242 13.1393 28.0526C13.1251 28.0526 13.1109 28.0668 13.0967 28.0668C13.0541 28.081 13.0116 28.0952 12.969 28.1235C12.9264 28.1377 12.898 28.1519 12.8555 28.1661C12.6852 28.2512 12.5149 28.3364 12.3447 28.4499C12.3163 28.4783 12.2737 28.4925 12.2453 28.5208L12.2311 28.535C12.1176 28.6202 11.9899 28.7053 11.8906 28.7904C11.8339 28.833 11.7771 28.8898 11.7203 28.9323C11.6494 28.9891 11.5926 29.0458 11.5359 29.1026C11.4791 29.1593 11.4224 29.2303 11.3656 29.287C11.3089 29.3438 11.2663 29.4006 11.2237 29.4573C11.1386 29.5708 11.0393 29.6843 10.9683 29.7979L10.9541 29.812C10.9257 29.8404 10.9116 29.883 10.8832 29.9114C10.7555 30.0958 10.6561 30.3087 10.5568 30.5073C10.5284 30.5499 10.5143 30.6066 10.5001 30.6492C10.5001 30.6634 10.4859 30.6776 10.4859 30.6918C10.4717 30.7343 10.4433 30.7911 10.4291 30.8337C10.4007 30.933 10.3582 31.0181 10.3298 31.1175C10.3014 31.1884 10.2872 31.2593 10.273 31.3445V31.3587C10.2589 31.4154 10.2447 31.458 10.2305 31.5148C10.2163 31.5431 10.2163 31.5857 10.2021 31.6141C10.1879 31.685 10.1737 31.7418 10.1737 31.7985C10.1453 31.9546 10.1311 32.1107 10.1311 32.2668C10.1311 32.3519 10.117 32.4229 10.1311 32.508C10.1311 33.785 10.642 35.0195 11.5501 35.9276C12.4582 36.8357 13.6926 37.3465 14.9697 37.3465C16.1899 37.3465 17.3534 36.8925 18.2474 36.0695C18.3041 36.0269 18.3467 35.9702 18.4034 35.9276C18.4602 35.8708 18.517 35.8141 18.5595 35.7573C21.3548 33.033 25.0298 31.756 28.6622 31.912C31.9683 32.0539 35.2318 33.3877 37.7717 35.9134Z" fill="#1565D8"/>
<path d="M18.5453 35.7716C18.4886 35.8283 18.446 35.8851 18.3893 35.9418C18.3325 35.9986 18.2899 36.0412 18.2332 36.0837C18.2899 36.027 18.3467 35.9702 18.4035 35.9135C18.446 35.8709 18.5028 35.8141 18.5453 35.7716Z" fill="#0000FF"/>
<path d="M39.517 2.29929L44.8521 7.63442L40.7372 11.7493L47.7467 18.7587L42.4116 24.0939L35.4021 17.0844L26.846 25.6405C27.967 27.5844 28.5629 29.7412 28.6622 31.9121C25.0298 31.756 21.369 33.0473 18.5595 35.7574C19.3683 34.8635 19.8082 33.7142 19.8082 32.5081C19.8082 31.2169 19.2974 29.9966 18.3893 29.0885C17.4811 28.1804 16.2467 27.6696 14.9697 27.6696C14.8136 27.6696 14.6433 27.6837 14.4872 27.6979C14.4021 27.6979 14.3311 27.7121 14.246 27.7263C14.1751 27.7405 14.1183 27.7405 14.0616 27.7547L39.517 2.29929Z" fill="#363A41"/>
</svg>
