<svg width="15" height="18" viewBox="0 0 15 18" fill="none" xmlns="http://www.w3.org/2000/svg">
<path d="M7.11113 0.875C4.44099 0.875 2.25002 2.84687 2.25002 5.25V7.04688C1.59077 7.62688 1.0669 8.31956 0.709144 9.08426C0.351389 9.84896 0.166962 10.6703 0.166687 11.5C0.166687 14.9438 3.28474 17.75 7.11113 17.75C10.9375 17.75 14.0556 14.9438 14.0556 11.5C14.0553 10.6703 13.8709 9.84896 13.5131 9.08426C13.1554 8.31956 12.6315 7.62688 11.9722 7.04688V5.25C11.9722 2.84687 9.78127 0.875 7.11113 0.875ZM7.11113 2.125C9.02433 2.125 10.5834 3.52812 10.5834 5.25V6.10938C9.55905 5.57188 8.37919 5.25 7.11113 5.25C5.84308 5.25 4.66322 5.5725 3.63891 6.10938V5.25C3.63891 3.52812 5.19794 2.125 7.11113 2.125ZM7.11113 6.5C10.1875 6.5 12.6667 8.73125 12.6667 11.5C12.6667 14.2688 10.1875 16.5 7.11113 16.5C4.03474 16.5 1.55558 14.2688 1.55558 11.5C1.55558 8.73125 4.03474 6.5 7.11113 6.5ZM7.11113 10.25C6.74278 10.25 6.38951 10.3817 6.12904 10.6161C5.86857 10.8505 5.72224 11.1685 5.72224 11.5C5.72224 11.9625 6.0021 12.3581 6.41669 12.575V14.625H7.80558V12.575C8.22016 12.3581 8.50002 11.9625 8.50002 11.5C8.50002 11.1685 8.35369 10.8505 8.09322 10.6161C7.83276 10.3817 7.47949 10.25 7.11113 10.25Z" fill="#737B7D"/>
</svg>
