<svg width="20" height="20" viewBox="0 0 20 20" fill="none" xmlns="http://www.w3.org/2000/svg">
<path d="M18.075 13.6417L19.025 12.8083L18.1917 11.3667L16.9833 11.775C16.7167 11.55 16.4167 11.375 16.0833 11.25L15.8333 10H14.1667L13.9167 11.2417C13.5833 11.3667 13.2833 11.5417 13.0167 11.7667L11.8083 11.3583L10.975 12.8L11.925 13.6333C11.8583 14.05 11.8583 14.2667 11.925 14.6833L10.975 15.5167L11.8083 16.9583L13.0167 16.55C13.2833 16.775 13.5833 16.95 13.9167 17.075L14.1667 18.3333H15.8333L16.0833 17.0917C16.4167 16.9667 16.7167 16.7917 16.9833 16.5667L18.1917 16.975L19.025 15.5333L18.075 14.7C18.1417 14.275 18.1417 14.0583 18.075 13.6417ZM15 15.8333C14.0833 15.8333 13.3333 15.0833 13.3333 14.1667C13.3333 13.25 14.0833 12.5 15 12.5C15.9167 12.5 16.6667 13.25 16.6667 14.1667C16.6667 15.0833 15.9167 15.8333 15 15.8333ZM15.8333 3.33333V8.33333H14.1667V5H12.5V10H10.8333V4.16667H5.83333V15.8333H10V17.5H2.5V15.8333H4.16667V2.5H12.5V3.33333H15.8333ZM10 10.8333H8.33333V9.16667H10V10.8333Z" fill="#737B7D"/>
</svg>
