<svg width="25" height="25" viewBox="0 0 25 25" fill="none" xmlns="http://www.w3.org/2000/svg">
<path d="M12.5694 7.63889C9.86111 7.63889 7.70833 9.79166 7.70833 12.5C7.70833 15.2083 9.86111 17.3611 12.5694 17.3611C15.2778 17.3611 17.4306 15.2083 17.4306 12.5C17.4306 9.79166 15.2778 7.63889 12.5694 7.63889ZM12.5694 15.9722C10.625 15.9722 9.09722 14.4444 9.09722 12.5C9.09722 10.5556 10.625 9.02777 12.5694 9.02777C14.5139 9.02777 16.0417 10.5556 16.0417 12.5C16.0417 14.4444 14.5139 15.9722 12.5694 15.9722Z" fill="black"/>
<path d="M22.7778 10.2083L20.8333 9.58333L20.4167 8.54166L21.3889 6.73611C21.5972 6.31944 21.5278 5.76389 21.1806 5.41666L19.5139 3.75C19.1667 3.40277 18.6111 3.33333 18.1944 3.54166L16.3889 4.51389L15.3472 4.09722L14.7222 2.15277C14.5833 1.73611 14.1667 1.38889 13.6806 1.38889H11.3194C10.8333 1.38889 10.4167 1.73611 10.3472 2.22222L9.72222 4.16666C9.30555 4.23611 8.95833 4.375 8.61111 4.58333L6.80555 3.61111C6.38889 3.40277 5.83333 3.47222 5.48611 3.81944L3.81944 5.48611C3.47222 5.83333 3.40277 6.38889 3.61111 6.80555L4.51389 8.54166C4.375 8.88889 4.23611 9.30555 4.09722 9.65277L2.15277 10.2778C1.73611 10.4167 1.38889 10.8333 1.38889 11.3194V13.6806C1.38889 14.1667 1.73611 14.5833 2.22222 14.7222L4.16666 15.3472L4.58333 16.3889L3.61111 18.1944C3.40277 18.6111 3.47222 19.1667 3.81944 19.5139L5.48611 21.1806C5.83333 21.5278 6.38889 21.5972 6.80555 21.3889L8.61111 20.4167L9.65277 20.8333L10.2778 22.8472C10.4167 23.2639 10.8333 23.6111 11.3194 23.6111H13.6806C14.1667 23.6111 14.5833 23.2639 14.7222 22.8472L15.3472 20.8333L16.3889 20.4167L18.1944 21.3889C18.6111 21.5972 19.1667 21.5278 19.5139 21.1806L21.1806 19.5139C21.5278 19.1667 21.5972 18.6111 21.3889 18.1944L20.4167 16.3889L20.8333 15.3472L22.8472 14.7222C23.2639 14.5833 23.6111 14.1667 23.6111 13.6806V11.3194C23.6111 10.8333 23.2639 10.3472 22.7778 10.2083ZM22.2222 13.4722L19.7222 14.2361L19.6528 14.5833L19.0278 16.0417L18.8194 16.3889L20.0694 18.6806L18.6806 20.0694L16.3889 18.8194L16.0417 19.0278C15.5556 19.3056 15.0694 19.5139 14.5833 19.6528L14.2361 19.7222L13.4722 22.2222H11.5278L10.7639 19.7222L10.4167 19.6528L8.95833 19.0278L8.61111 18.8194L6.31944 20.0694L4.93055 18.6806L6.18055 16.3889L5.97222 16.0417C5.69444 15.5556 5.48611 15.0694 5.34722 14.5833L5.27777 14.2361L2.77777 13.4722V11.5278L5.13889 10.8333L5.27777 10.4861C5.41666 9.93055 5.625 9.44444 5.90277 8.95833L6.11111 8.61111L4.93055 6.31944L6.31944 4.93055L8.54166 6.18055L8.88889 5.97222C9.375 5.69444 9.86111 5.48611 10.4167 5.34722L10.7639 5.20833L11.5278 2.77777H13.4722L14.2361 5.20833L14.5833 5.34722C15.0694 5.48611 15.5556 5.69444 16.0417 5.97222L16.3889 6.18055L18.6806 4.93055L20.0694 6.31944L18.8194 8.61111L19.0278 8.95833C19.3056 9.44444 19.5139 9.93055 19.6528 10.4167L19.7222 10.7639L22.2222 11.5278V13.4722Z" fill="black"/>
</svg>
